<?xml version="1.0" standalone="no"?>
<!DOCTYPE svg PUBLIC "-//W3C//DTD SVG 20010904//EN"
 "http://www.w3.org/TR/2001/REC-SVG-20010904/DTD/svg10.dtd">
<svg version="1.0" xmlns="http://www.w3.org/2000/svg"
 width="305.000000pt" height="301.000000pt" viewBox="0 0 305.000000 301.000000"
 preserveAspectRatio="xMidYMid meet">
<metadata>
Created by potrace 1.16, written by Peter Selinger 2001-2019
</metadata>
<g transform="translate(0.000000,301.000000) scale(0.100000,-0.100000)"
fill="#000000" stroke="none">
<path d="M816 2750 c-60 -72 -58 -185 4 -372 47 -139 52 -119 -63 -269 -43
-56 -77 -109 -75 -118 5 -26 51 -24 125 5 37 15 165 72 283 127 221 102 271
118 309 98 46 -25 79 -139 49 -169 -16 -16 -53 -15 -68 2 -19 24 -97 49 -132
43 -55 -9 -626 -294 -632 -315 -11 -34 3 -49 97 -100 121 -67 398 -200 466
-223 59 -21 121 -25 121 -9 0 6 -16 33 -35 61 -56 82 -45 140 41 213 40 33 61
33 96 -1 34 -33 35 -58 4 -103 -70 -104 -25 -169 119 -169 144 0 189 65 119
169 -31 45 -30 70 4 103 35 34 56 34 96 1 86 -73 97 -131 41 -213 -19 -28 -35
-55 -35 -61 0 -16 62 -12 121 9 71 24 305 136 446 213 110 59 130 78 117 112
-7 19 -583 305 -632 313 -35 6 -113 -19 -132 -43 -15 -17 -52 -18 -68 -2 -30
30 3 144 49 169 38 20 88 4 309 -98 118 -55 246 -112 283 -127 74 -29 120 -31
125 -5 2 9 -32 62 -75 118 -115 150 -110 129 -63 271 62 190 64 298 4 370 -22
26 -33 30 -73 30 -60 0 -116 -34 -192 -118 l-56 -62 -388 0 -388 0 -56 62
c-76 84 -132 118 -192 118 -40 0 -51 -4 -73 -30z"/>
<path d="M670 630 l0 -322 193 4 c186 3 194 4 243 30 62 33 117 88 146 148 31
64 32 205 2 271 -31 67 -87 124 -152 156 -55 27 -64 28 -244 31 l-188 4 0
-322z m386 226 c58 -27 120 -94 134 -145 28 -103 -4 -221 -75 -276 -63 -47
-102 -58 -237 -63 l-128 -5 0 257 0 256 128 0 c112 0 133 -3 178 -24z"/>
<path d="M1310 915 l0 -35 115 0 115 0 0 -285 0 -285 35 0 35 0 0 285 0 285
115 0 115 0 0 35 0 35 -265 0 -265 0 0 -35z"/>
<path d="M1930 630 l0 -320 40 0 40 0 0 83 0 83 63 62 63 62 124 -144 125
-145 48 -1 49 0 -19 24 c-10 14 -75 92 -145 174 l-128 150 138 144 137 143
-45 3 -45 4 -182 -189 -182 -188 -1 188 0 187 -40 0 -40 0 0 -320z"/>
</g>
</svg>
